<?xml version="1.0" encoding="iso-8859-1"?>
<!-- Generator: Adobe Illustrator 16.0.0, SVG Export Plug-In . SVG Version: 6.00 Build 0)  -->
<!DOCTYPE svg PUBLIC "-//W3C//DTD SVG 1.1//EN" "http://www.w3.org/Graphics/SVG/1.1/DTD/svg11.dtd">
<svg version="1.1" id="Capa_1" xmlns="http://www.w3.org/2000/svg" xmlns:xlink="http://www.w3.org/1999/xlink" x="0px" y="0px"
	 width="968.5px" height="968.5px" viewBox="0 0 968.5 968.5" style="enable-background:new 0 0 968.5 968.5;" xml:space="preserve"
	>
<g>
	<path d="M800.3,219.621c-51.3-35.5-112.7-57.5-175.2-60.2c-6.6-0.3-13.1-0.3-19.699-0.2c-76,1.8-138.4,37.1-201.7,75.5
		c-33.601,20.4-75.7,45.6-118.1,42c-46.4-3.9-73.8-41.5-65.2-105c25.7-13.1,43.1-40.1,42.2-71.2c-1.2-40.5-34.1-73.5-74.6-74.8
		c-30.9-1-57.9,16.3-71.1,41.8l-92.7,18.5c-14.1,2.8-24.2,15.2-24.2,29.5c0,0,109.4,14.9,159.3,71.7c0,54.6-1.7,165.1,137,165.1
		c38.2,0,71.601,3.1,100.2,7.6c0.1-0.5,0.3-0.9,0.4-1.4c14.399-44.5,50.5-78.5,93-96.4c6.399-2.7,12.899-5,19.6-7
		c48.2-14.4,100.1-10.6,146.7,7.7c13.7,5.4,26.1,11.5,37.1,17.9c20.601,11.8,39.5,26,57.5,41.4c2.2,1.9,4,3.5,5.4,4.8
		c2.899,2.6,4.5,4.1,4.5,4.1s-1.7-1.3-4.8-3.6c-1.601-1.2-3.5-2.6-5.801-4.3c-9.8-7-19.8-13.7-30.1-19.9
		c-8.7-5.2-18.8-10.6-30.1-15.8c-11.301-5.2-23.801-10-37.301-14c-13.5-3.9-28.1-6.9-43.199-8.3c-15.101-1.4-30.801-1.2-46.301,0.9
		c-15.6,2.1-31,6.1-45.6,12c-27.4,11-52.9,30-69,55c-19.2,29.9-21.3,66.1-11.7,99.7c4.2,14.8,10,28.101,19.7,40.2
		c10.2,12.7,21.6,24.1,34.5,34c21.9,46.4,53.9,68.3,86.1,77.2l59,122.1c-2.399,6.101-3.699,12.7-3.699,19.601
		c0,9.3,2.399,18,6.6,25.6l-72.6,138.8l-38.4-2c-25.9,0-47.7,18.101-53.2,42.4c-1.399,6.2,3.4,12.2,9.8,12.2H711
		c8,0,12.8-9,8.3-15.601l-11.7-17.2c-5.5-8-14.399-13.1-24.1-13.6l-41.3-2.2L708.1,773.821c18-8.5,30.5-26.801,30.5-48.101
		c0-23.3-15-43-35.8-50.2l-57.3-88.199c29.9-4.5,51.3-14.301,51.3-14.301c18,62.9,106.9,38.9,106.9,38.9c90.7,59.9,164.8,6,164.8,6
		C968.5,469.621,928.7,308.621,800.3,219.621z M177.9,112.92c-13.8,0-25-11.2-25-25s11.2-25,25-25c13.8,0,25,11.2,25,25
		S191.8,112.92,177.9,112.92z"/>
</g>
<g>
</g>
<g>
</g>
<g>
</g>
<g>
</g>
<g>
</g>
<g>
</g>
<g>
</g>
<g>
</g>
<g>
</g>
<g>
</g>
<g>
</g>
<g>
</g>
<g>
</g>
<g>
</g>
<g>
</g>
</svg>
